<?xml version="1.0" standalone="no"?>
<!DOCTYPE svg PUBLIC "-//W3C//DTD SVG 20010904//EN"
 "http://www.w3.org/TR/2001/REC-SVG-20010904/DTD/svg10.dtd">
<svg version="1.0" xmlns="http://www.w3.org/2000/svg"
 width="120.000000pt" height="81.000000pt" viewBox="0 0 120.000000 81.000000"
 preserveAspectRatio="xMidYMid meet">
<metadata>
Created by potrace 1.13, written by Peter Selinger 2001-2015
</metadata>
<g transform="translate(0.000000,81.000000) scale(0.100000,-0.100000)"
fill="#000000" stroke="none">
<path d="M120 758 c-79 -40 -80 -47 -80 -401 l0 -308 493 3 c474 3 493 4 527
23 19 12 43 36 55 55 19 33 20 51 20 340 l0 305 -485 3 -485 2 -45 -22z m310
-318 l0 -139 78 -3 c76 -3 77 -3 80 -30 l3 -28 -110 0 -111 0 0 163 c0 90 3
167 7 170 3 4 17 7 30 7 23 0 23 0 23 -140z m410 110 l0 -30 -80 0 -80 0 0
-35 0 -34 68 -3 c64 -3 67 -4 67 -28 0 -24 -3 -25 -67 -28 l-67 -3 -3 -72 c-3
-70 -4 -72 -30 -75 l-28 -3 -1 123 c0 68 -3 134 -5 148 -3 14 -2 35 1 48 5 21
10 22 115 22 l110 0 0 -30z"/>
</g>
</svg>
